<svg xmlns="http://www.w3.org/2000/svg" viewBox="0 0 630 576"><defs><style>.cls-1{fill:#fff;}.cls-2{fill:#040303;}.cls-3{fill:#079606;}.cls-4{fill:#b16e94;}</style></defs><g id="Layer_2" data-name="Layer 2"><rect class="cls-1" x="0.5" y="0.5" width="630" height="576"/></g><g id="Asim_2FA_Article_02_Image" data-name="Asim_2FA_Article_02 Image"><path class="cls-2" d="M90.91,514.61c.13,10.45.57,19.85.87,29.25,1.55,13.39-.32,25.35-16.81,24.5-11.84-2.33-39.22,6.89-44.71-6.28-1.82-7.39-.58-15.18-.7-22.73-.68-19.17-4.36-38.24-3.72-57.45,2.65-26.39,4.41-16.44,31.34-21.93,4.91-1.06,10.27.87,14.9-.27.43-.42,1.07-.24,1.55-.06,3.18.69,6.47-1.06,9.38,1.21C96.65,466.7,88.67,501.21,90.91,514.61Zm-11.58,27c.4-3.5-.66-64-1.09-65.65L37.6,477.66c.41,21.08.38,42.94,1.93,63.76C52.65,541.11,65.94,541.82,79.33,541.66ZM65.12,555.55c.51-6.19-7.56-10.24-11-5C48.88,559.19,63.9,566.88,65.12,555.55Z"/><path class="cls-2" d="M64.77,382.91c27.15,17,29.67,35-.37,5.1-3,14.09-.38,29.3-1.76,43.71,2.9,1.81,38,27.68,27.07,29.08-12.13-5.62-21.57-17-31.38-26C49,440.07,41.48,448.69,32.27,454.4c-9.43.82,20.19-21.74,22.86-22.12,2-.85,1.26-2.83,4.32-2.47.11-10.43-2-21.18-.59-31.72-.61-3.94,2.75-12.95-.15-15.18-8.27,8.32-15.84,17.55-24.36,25.75-1.27.92-2.76,3.64-4.5,2.27-1.39-3.44,13.2-17.54,16.09-21.24,3.11-2.07,11.69-13.33,14.78-11,1.4-6.84,1.48-13.69,2.73-20.49-21.15,1-22.4-22.15-16-37.11,1-2.42,3.25-7.66,6.52-5.49,35.84-25.23,54.49,41.77,11.9,42.54C68.11,366.44,65.82,374.71,64.77,382.91Zm-.37-29c23,1.76,30.83-27.24,11.7-38.32C49.83,303.68,35.24,355.55,64.4,353.91Z"/><path class="cls-2" d="M58.17,201.37c-3.37.77-30.38,27.35-27.54,17.53a139.09,139.09,0,0,1,26-21.22c.52-1.2,1.71-1.11,2.73-1,.29-10.41-2-21.23-.53-31.78-.61-3.95,2.75-12.93-.14-15.18-8.33,8.36-15.93,17.64-24.5,25.88-1.16,1-2.72,3.45-4.37,2.14-1.18-3.76,13.26-17.58,16.34-21.51,3.16-2.07,11.34-13,14.53-10.71,1.4-6.85,1.48-13.7,2.73-20.5-21.15,1-22.39-22.15-16-37.11,1-2.42,3.26-7.66,6.52-5.49,35.84-25.24,54.49,41.8,11.9,42.54,2.2,8.3-.09,16.56-1.14,24.77,27.15,17,29.66,35-.36,5.09-3,14.1-.43,29.3-1.75,43.74,2.91,1.78,38,27.68,27.05,29.05C77.54,221.88,67.93,210.57,58.17,201.37Zm6.49-80.66c38.17,1,21-58-8.92-34.53C44.91,96,45.12,123.34,64.66,120.71Z"/><path class="cls-3" d="M272.88,475.82c14.27,17.11,28.68,35.82,51.2,41.68,37.43,9.28,90.91,4.88,107-36.13a56.28,56.28,0,0,0,4.52-16.95c.06-.68.2-1.6,1.06-1.62,3.17,2,.63,7.91.26,11.06-7.77,40.62-50.39,54.31-87.15,52.54-31.8.11-60.85-17.36-77.54-44.09-.82,5.13.8,10.86.53,16.2-4,8.39-6.22-14.14-5.82-16.62-.73-16.19,10.21-12.42,21.66-11.52,1.4.12,2.68,1,2.64,2C289.33,477.46,278,474.68,272.88,475.82Z"/><path class="cls-2" d="M215.4,414.37c26.86,0,53.73,0,80.58,0,1.52,0,1.89.36,2.06,1.88,3.39,38.58,9.92,26.5-27.49,30.45-35.17,2.14-70.36,4.09-105.55,6.15-8,.49-16,1-24,1.56-2.68.15-2.85,0-3.18-2.61-1.57-11.7-2.56-23.57-4.88-35.08-.25-1.28.52-1.95,1.93-1.94,26.85.2,53.72-.18,80.57-.19ZM140.11,452l22.18-1.22c-3.63-4.72-2.91-11-4.86-16.5-5.56,11.12-16.07-3.06-9.18-9.68,3.1-3.32,6.88-.95,9.47,1.34,1.2-.16,1.51.68,1.68,1.64.67,7.69,4.94,15.66,3.37,23.2l135.42-8.42c-.86-8.63-1.69-17-2.54-25.61-53.3.57-106.46.29-159.75.74C136.25,429,138.81,440.3,140.11,452Zm8.56-21.82c1.89,13.19,12.23-1,6-4.84C151.2,423.29,148.62,427,148.67,430.17Z"/><path class="cls-2" d="M519.47,376.2c27-.82,54.2-.13,81-1.63,7.24-2.53,4.28,8.6,5.56,12.71q3.3,35.81,6.41,71.62c.33,3.83.35,3.71-3.21,3.58-44.76-1.69-89.53-3.27-134.28-5.17-7.49-.3-15-.57-22.47-.88-2-.08-2.09-.13-2.42-2.11-4-24.65-7.83-49.33-11.68-74-.39-2.54-.2-2.72,2.29-2.74,26.27-.15,52.52-1.25,78.79-1.11Zm-79.05,3.45c4,24.93,8,49.63,12.06,74.47,52.64,2,105.19,4,157.77,6.17q-3.81-41.7-7.6-83C549,376.36,494.4,379,440.42,379.65Z"/><path class="cls-2" d="M519.5,108.8c27-.82,54.19-.12,81-1.64,7.61-3.09,4.3,12,5.87,16.33,2.1,22.67,4.08,45.36,6.08,68,0,1.41.78,3.84-1.45,3.58-43.09-1.4-86.16-3.22-129.24-5-4.76-1.07-32.16.92-31.63-2.88-4-24.7-7.9-49.44-11.74-74.17-.42-2.71-.24-2.88,2.49-2.9,26.2-.16,52.4-1.25,78.61-1.1Zm-67,77.92c52.64,2,105.18,3.95,157.77,6.17q-3.81-41.68-7.61-83.12c-53.69-.68-108.23,1.83-162.21,2.5C444.46,137.18,448.46,161.88,452.48,186.72Z"/><path class="cls-2" d="M292.88,240.4c.39,2.61,4.28,26.17-1.75,19.46-1.34-19.39-12.61-30.22,15.36-31,3.35,0,15.81-1,11.37,5a129,129,0,0,1-23.14,3.1c45.43,32.93,121.57,6.54,136-48,.3-1.56,0-5.24,2.54-3.11,2,3.67-.11,8.38-.86,12.22C412.93,250.8,338.5,273,292.88,240.4Z"/><path class="cls-2" d="M213.5,114.85q-45.6-.7-91.2-1.44c-1.89,0-2-.09-1.75-2,1.35-10,2.71-20.07,4.23-30.07.32-1.76-1.57-4.57,1.68-4.42,10,.69,20,.44,30,.63,48.21.68,96.43,1.18,144.64,1.87,2.84,0,2.78.06,3,2.94.8,10.58,1.73,21.15,2.48,31.73.13,1.75-.2,2.08-2.05,2q-45.51-.75-91-1.42Zm-91.42-3,182.41,2.34c-.86-11-1.71-21.67-2.55-32.29-58.4-.83-117.5-2.42-175.78-1.75Z"/><path class="cls-2" d="M124.45,190c2.06,11.08,4.56,22.72,6.68,34.12l172.28-1.84c-1.5-11.51-3-22.89-4.45-34.22-58.34-1.06-117-1.39-175.47-1.74a1.18,1.18,0,1,1,0-2.32c17.86.48,35.74.39,53.61.67,40.55.46,81.09.83,121.63,1.36,1.63,0,1.83.17,2.05,1.8,1.4,11.6,3.13,23.17,4.49,34.77-54.68,5.19-116.13,1.1-173,3.34-1.34,0-3,.31-3-1.53C127.93,213.05,123.64,201.19,124.45,190Z"/><path class="cls-4" d="M420.66,367.45c1-5.43-2.27-11.75.18-16.66,5.55,3.12,4.36,14.9,5,20.74.17,4.35-3.3,7.57-7.83,6.16-2.64,0-21.61-11.24-11-9.69,4.31,1.71,8.42,5.44,13.14,5.43-8.39-11.67-18.28-25.7-30-35.52-26.9-25.16-69.35-22.75-89.84,9a41,41,0,0,0-7.48,20.51c-.37,1.33.14,3.94-1.7,4.12-2.64-2.21-.42-8.24-.11-11.43,6.15-22.33,27.56-41.08,50.8-43.13C376.79,313.34,403.35,340.81,420.66,367.45Z"/><path class="cls-4" d="M420.85,93.09c-1.12.38-1.83-.33-2.4-1.08-9.4-13.14-16.68-28.85-30.57-37.92C364,38.42,328.11,38.7,305.39,56.44c-3.33,1.58-8.57,10.13-11.62,8.93-1.29-1.63,1.47-2.91,2.17-4.21,20.76-25.44,61.35-27.52,89.2-13.23C402,56.25,411.21,73.1,420,88.83,421.1,90.85,421.24,91.5,420.85,93.09Z"/><path class="cls-4" d="M396.39,82.51c-.54,2.61-2.21.56-2.85-.88.63-9.85,23.57,11.87,27.31,13.38,1.76-8.59-.67-17.81.5-26.55,6.1-9.36,6.92,24.56,4.42,27.25C422.16,108.72,404,83.66,396.39,82.51Z"/><path class="cls-4" d="M349.32,23.54c.88,5.94,9.67,5.64,14.29,5.25,2.36-1.2.29-5.43,1-7.75-.07-1.64.81-5.83,2.3-2.39,5.83-5.36,11.55-1.58,11.27,5.77-.3,2.59,1.77,6.25.41,8.27-1.53.45-1.88-1.7-2.09-2.77-1.51-3.29.35-12.32-5.09-11.14A5.4,5.4,0,0,0,367,23.86c-.53,1.88,1.27,6.59-2.2,5.62-2.51,3.69-8,1.79-11.67,1.36-7.61-1.1-9-12.36-2.49-15.86C363.49,8.38,359.67,24.18,349.32,23.54Zm7.17-7.82c-3.41-.86-7.3,2.12-7.12,5.44C353.18,21.39,356.94,18.52,356.49,15.72Z"/><path class="cls-2" d="M184.06,175.53c.76-1.95.34-3.44,1.21-5.17,3.91-4.29,6,11.15,9.74,5.28,2.56-3.16,2.6-8.32,5.6-10.84.61.4.3,1,.17,1.44-2.36,9.15-6.38,20.86-13.91,6.77-.89,2-.48,8.54-3.94,5.66-2.23-2.8-1.66-7.42-4-9.88,1.86-3.4-3.8-3.88-5.83-2.89-.06,2.14,2.61,2.84,3.78,4.32,7.43,6.61-8.94,11.25-10.09,3.71.87-.2,1.38.38,1.94.76,2.08,2,10,.91,6.61-2.77-6.76-4.4-5.51-10.44,2.88-7.48a1.89,1.89,0,0,0,2.3-.11C181.71,168.08,182.45,171.76,184.06,175.53Z"/><path class="cls-4" d="M408.19,29.6c-.5,9.64-12.54-1.63-12.43-6.68-9.27,22.93-21.63-10.71-1.46-5.14,1-3.14-1.59-9.18.77-10.91,3.2,1.48,1.46,11.11,3.15,14.68.81,3.27,5,11.05,8.83,8.3A1.14,1.14,0,0,1,408.19,29.6Zm-14.12-9.94c-5.5-3.71-11.26,3.48-6.94,8.24C391,31,393.61,22.63,394.07,19.66Z"/><path class="cls-4" d="M326,309.63a17.27,17.27,0,0,0,9.55,1.08c-.11-2.71-.86-5.45-.37-8.14,1-.3,1,1.34,1.72.45,5.23-6.17,9.65-1.61,9.62,5-.16,1.9,1.77,5,.13,6.25-3.45,0-1.64-12.77-5.61-11.65-6.06,1-.95,8.84-5.76,10.2-5.17,1-14.43.49-14.14-6.51C324.22,294.18,341.34,303.46,326,309.63Zm-2-1.93c2.25.35,8.42-2.94,5.48-5.07C326.77,301.79,322.45,304.61,323.94,307.7Z"/><path class="cls-3" d="M345.14,549.92c-.63,21.77-24.1,6.92-17-8C333.59,527.94,346.38,538.91,345.14,549.92Zm-2.24,0c.19-16.48-15.18-16.25-14.15,0C331.8,559.36,343,563,342.9,550Z"/><path class="cls-2" d="M491.93,271.78c.55.61.24,1.2.47,1.79a1.34,1.34,0,0,1,1.85.84,2.16,2.16,0,0,1,3.47,2.44c-1.31,1.66-4.29.93-3.72-1.54a1.48,1.48,0,0,1-1.85-1.28c-5.75,5.38-19.79,1.41-24.55-3.95-3.38-3.8-.89-10.42,4.24-10.74,6.13.31,2.14,8.31-2,9C473.81,272.53,487.28,276.11,491.93,271.78Zm-23.29-5.12c2.48.17,7-5.41,3-5.42C469.49,261.58,468,264.19,468.64,266.66Z"/><path class="cls-2" d="M201.22,397.47c1.9,4.73,8.31,5.33,12.68,6.56,2.21.89,3.41-1.31,5.4-1.34,1,9.11-20.58,2.43-21-4.15.06-1-1.27-1.65-1.15-2.51.8-1.23.33-2.69.77-4C203,379.75,213.67,393,201.22,397.47Zm-.57-2.66c2.1-.43,5.58-3.12,3.69-5.18C201.62,388.34,200.2,392.61,200.65,394.81Z"/><path class="cls-2" d="M283.14,394.22c2.18,5.41,14,5.85,18.33,8.09.83,6.07-20.36-1.78-20.72-5.93A7.24,7.24,0,0,1,280,394c-.36-1.16-2.79-2.18-.1-2.52C282.19,375.43,297.42,391.54,283.14,394.22Zm-.28-2.32c3,.77,5.92-4,2.6-5.25C283.31,386.84,282.9,390,282.86,391.9Z"/><path class="cls-2" d="M150.17,56.81c1.88.93,1.15,3.2,2.08,4.75,3.81-6.24,7.39-4.2,9,2.15.9-3.28,4.49-11.46,8.33-6.41,1.7,4.65,3.81,10.32,4.24,14.94-3.52-.69-3.82-11.63-6.57-14.52-6.12,2.4-2.19,11.32-5.45,13.51-2.33-.92-1.76-4.93-2.74-7-.49-1.66-1.22-6.12-3.66-3.9-3,2.68-2.1,7-1.9,10.53C151.48,74.42,150.07,58.09,150.17,56.81Z"/><path class="cls-2" d="M141.06,204.74c-.56-8.22,1.39-11.86,2.95-1.24,1.12-1,7.36-7.53,6-2.82-1.66,2.26-4,4-5.58,6.29,1.48,1.94,4.47,3.31,6.38,2.93.87,4.11-4.26.6-6.09.52,2,12-2.13,8.83-2.71-.61-2,.45-3.18,2.88-4.85,4.08-.39.38-.82.85-1.37.32-.61-2.5,3.24-4.56,4.46-6.72C131.42,200.83,129.62,194.44,141.06,204.74Z"/><path class="cls-3" d="M294.9,533.8c2.14,4.87.17,12,1.59,17.4,3.71.74,7.46,1,11-1-.05,4.35-8,3.29-11.21,3.37.17,1.37.12,7.78-1.89,4.37-.14-1.68.27-3.27-.35-4.92-3.45-1.21-9.08-1.33-9.65-5.9-.16-4.89-1.77-11.87.73-15.84,3.27,7.22-4.7,19.6,8.8,19.5C294.43,545.39,291.69,538.32,294.9,533.8Z"/><path class="cls-2" d="M268.39,388.12c1.27-5-2.75-11.44-.23-15.56,1.44-.07,1.12,1.94,1.38,2.9.77,4.8,3.24,19.63,7.38,21.36,0,7.73-6.25-5.7-6.83-7.48C264.73,416.92,251.94,379.58,268.39,388.12Zm-3.53,9.62c2.65-2.56,5.05-9.15-.35-9.29C260.91,389.78,263.23,395.19,264.86,397.74Z"/><path class="cls-2" d="M151.38,378.29c2.31,4,1.16,9.62,2.33,14.31,7-8.44,9.58,3.94,11.13,9.38a3,3,0,0,0,.88,1.73c1.48,1-.64,2.81-1.69,1.67-2.74-1.69-4-14.78-7-12.71-4.72,2.82-1.18,8.48-2.84,12.17C150.9,407.78,149.48,379.13,151.38,378.29Z"/><path class="cls-2" d="M162.72,204.24c-2-11.77,1.36-8.76,2.71.57,1.22-1,10.33-8.51,8.37-3.68-2.37,2.5-5.59,4-7.79,6.68a16.35,16.35,0,0,0,4,3.27c.15-.27.27-.47.39-.67,1,.27,1.6,1.66,1.1,2-1.55,1.1-3.06-.85-4.63-1.39-.47,2.5,2,5.44.67,7.39-2.76-1-2.12-6.14-3.44-8.85-7.24,8-8.14,5.68-1.57-1.57-5.49-5.94-6-6.73-5.59-8.58C159.2,200,160.68,202.82,162.72,204.24Z"/><path class="cls-2" d="M177.89,198.93c2.63,1.26,3.31,3.78,5.69,5.41-1.08-14.12,2.36-9.5,3,1,14-10.22,10.71-5,.27,2.55.73,1.46,2.23,2,3.24,3s2.8.63,3.27,2.49c-2.37.29-3.74-1.54-5.72-2.1-.54,2.08,1.85,4.46.54,5.94-2.83.22-2.48-5.36-3.45-7.42-2.48,1.46-3.42,3.75-6.2,4.76.75-3,3.26-3.93,5.07-6.34C181.65,205.49,177.72,202.75,177.89,198.93Z"/><path class="cls-2" d="M131.18,69.54c-.07.73.54,1.51-.44,1.92-.85-.46-.31-1.35-.68-2-.37-.47-1.31-.3-1.44-1.2.28-.5.89,0,1.32-.42-.22-6.76-1.44-13.7-.47-20.51,1.08-6.29,10.42-3.3,15-3.61,1.06.2,4.21-.05,3.29,1.75-16-.7-17.62-4.9-16.78,12.75a75.24,75.24,0,0,0,14,.42c4.87,3.16-12.3.84-13.73.5V68c4.41,1.13,9.51-.11,14,1.14C149.35,72.52,132.77,68.91,131.18,69.54Z"/><path class="cls-2" d="M202.84,200.84c.16-2.09-1.46-6.57,1.2-7.28.73,2.58.69,5.39,1.41,8,3-1.6,7.5-7.89,11.22-5.88a73.14,73.14,0,0,0-11,8.87c1,2,6.6,4.36,5.75,5.59-1.71.93-3.29-1.85-5-2.21,2.07,12.24-1.57,7.28-2.46-.95-2.17.29-2.37,4.2-5,3.77,1.42-1.92,2.79-3.76,4.2-5.68-6.46-5.19-12-17.62-.68-4.12Z"/><path class="cls-2" d="M302.06,281.12c4.54.56,8.38,3.26,12.92,2.48-.84,5.67-11-1.07-14.77,0a1,1,0,0,1-.89-1.84c22.7-32.82-1.26-31.36,1.41-12.38C291.77,254.84,326.67,240.85,302.06,281.12Z"/><path class="cls-2" d="M470.69,274.63c-1.66,7.4-7.46-6.93-9-8.57-1.7,20.06-16.24-.82-6.57-5.05,2.28-.47,6.42,2.78,3.09,4.71.88-6.79-9.13-2.42-2,6.44,6.22,4.27,3-16.36,2.94-19.12-.32-1.75,2.07-1.91,1.84-.08C461.22,258.06,465.47,273.84,470.69,274.63Z"/><path class="cls-2" d="M402.51,265.13c.76-3.33-2.66-9.95-.11-11.85.82,0,.89.71,1,1.3C404.71,262,406,270,409.41,276.8c.53.36.37.86,0,1.23-3.37,1.2-3.66-6.3-5.12-8.36-.64.08-.46.54-.53.84-.41,4-4.33,8.59-8.26,5.27C389.58,271,395.28,260.16,402.51,265.13Zm-.06,3.2c-1.35-7.62-11.3-.29-6.34,5.42C399.54,278.07,402.62,271.61,402.45,268.33Z"/><path class="cls-2" d="M350.33,279.38c1.89-5.2-1.87-18,1.43-21.26,0,2.85,3.25,25.63-2.2,22.72-4.47-3.95-7.63-9.39-12.28-13.21-1.13.74.5,15.82-2.45,10.06.62-3.73-2.57-9.93.27-12.58.75-.46,0-1.77,1-2.13.65.84.65.84.8,2.51C342.18,269.11,345.83,274.46,350.33,279.38Z"/><path class="cls-2" d="M391.78,277.24c-.78,11.22-22.4-1.3-18.14-8,9-15,21-.18,2.94,3.21,1.72,3.54,5.83,5.61,9.5,6.9C388.59,280.49,389.72,277.91,391.78,277.24Zm-15.89-6.79c3,0,8.59-1.92,7.91-5.56C380.77,263.85,376.54,267.44,375.89,270.45Z"/><path class="cls-2" d="M243.23,166.27c.58-3-1.23-7.45.85-9.39,1.18-.08,1.11,1.39,1.36,2.2a21.51,21.51,0,0,0,6.29,11.28c2.06,1.92,2.88,2.65,5,.36.39,6.85-7.31.91-9.14-1.71-1.9,2.13-.92-.32-2.69-.15C243.79,189,228.34,168.29,243.23,166.27ZM241,175.65c1.92-2.16,1.87-4.83,2.2-7.47A4.08,4.08,0,0,0,241,175.65Zm5.28-8.12-1-1.93C245.07,166.75,245.07,166.75,246.26,167.53Z"/><path class="cls-2" d="M198.63,69.84c-1.95,5.67-10.14-1.86-11.86-4.8-.86,1.25-.37,3.28-1.38,4.68a4.91,4.91,0,0,1-9.33-1.18c-1.8-5.89,4-17.27,10.24-10.34C188.79,63.26,191.54,71.39,198.63,69.84ZM185.1,58.68c-5.69-4-7.8,5.92-6.65,9.85a2.66,2.66,0,0,0,2.34,2.16C186.25,70.21,184.36,62.44,185.1,58.68Z"/><path class="cls-2" d="M138,395.42c-.09,1.87,2.07,11.8-1.49,8-.64-3.52-1.12-7.09-1.74-10.62-.58-4.64.4-9.66,5.16-11.5C153.53,377.6,146.52,395.59,138,395.42Zm-.21-1.83c2.94-.11,8.63-6.93,7.3-9.73-.83-1.19-2.21-1-3.45-.91C135.8,383.81,136.93,389.5,137.76,393.59Z"/><path class="cls-2" d="M357,269.64h1.65c4.09-18.21,21.24-4.71,3.06,1.85,3.09,4.41,8.1,8,13.69,6.48-2.8,6.82-15.07-1.3-16.29-6.18C358.27,271.19,356.77,271.41,357,269.64Zm4.24-.25c3-.82,7.65-3.32,6.33-6.73C364.12,261.37,361.45,266.08,361.25,269.39Z"/><path class="cls-2" d="M125.33,168.7c-.39,2.68,1.64,7.2-.54,8.72-1.18.29-1.57-1.68-1.64-2.73-.12-1.76-2.21-25.28,1.32-15.88.7,0,.88-.6,1.22-.94,2.33-2.53,9.65-3.77,9.51,1.07C134,163.28,130.6,169.24,125.33,168.7Zm7.36-10.56c-6.49-1.68-8.09,4.78-7.44,9.68C129.31,166.51,133,161.61,132.69,158.14Z"/><path class="cls-2" d="M180.59,397.59c-1.31,12.56-11.71,11.06-14.08-.24S181.05,386.14,180.59,397.59Zm-2.74,0c.37-3.9-3.33-7.8-7-6.07C162.58,396.31,176.94,412.06,177.85,397.58Z"/><path class="cls-4" d="M408.49,305.92c-1.51-6.69,10.66-12.68,10.16-3.48-.67,3.07-4.3,4.75-6.83,2.67-.23,5.39,11.11,6.34,14.47,7.46-.46,5.57-15-.72-16.74-3.8v0c.07-.35,0-.64-.38-.75l0,0a1.17,1.17,0,0,0-.37-1.12l0,0c-.15-.36.15-.88-.38-1.11Zm3.12-2.59c2,.3,4.7,1.09,5.07-1.74C416.42,298,411.89,301,411.61,303.33Zm0,1.49c0-.38.26-.64-.12-.92A.72.72,0,0,0,411.64,304.82Z"/><path class="cls-2" d="M184.48,391.45c3.43-4.87,8.32-3.87,9.3,1.95-.14,1.87,5.23,15.25,1,12.57-2.31-2.17-3.06-18.85-7.25-14.71a6,6,0,0,0-2.21,4.72,45.62,45.62,0,0,0,.61,5.35c-.11,2-2.43,1.11-2.35-.52-.13-3.55-2.76-10.35-.45-12.95C184.44,388.35,183.91,390.07,184.48,391.45Z"/><path class="cls-4" d="M338.78,11.77c2-3.13-3.93-3.37-5.52-1.82-4.41,4.6,8.85,6.58,9.84,11.38,5.77,8.88-14.83,14.62-15.21,5.2.62,0,.95.47,1.25.86,3.15,3.83,14.87.92,12.3-4.91-1.77-5.37-13.92-6.2-10.22-13C333.85,4.69,345.86,9.09,338.78,11.77Z"/><path class="cls-2" d="M240.49,389.05c.72,1.08.54,2.26,1.12,3.22,4.43-9.28,16.83-4.32,14.26,5C252,408.15,236.57,396.2,240.49,389.05Zm8.7.22c-7.65.7-7.93,7-1.29,9.59C255.11,401.53,255.79,389.61,249.19,389.27Z"/><path class="cls-4" d="M360.7,307.81c-6.62,13.77-16.17-8.23-1.62-5.29-.05-1.5-2-13.57,1.48-9.12.94,6.06,1.66,12.3,4.16,17.94a.94.94,0,0,1-.25,1.42C361.94,313.5,361.81,309.55,360.7,307.81Zm-1.25-3.44c-3.14-2.17-7.84,1.44-5.06,4.7C357.07,312.57,359.53,306.86,359.45,304.37Z"/><path class="cls-4" d="M288.2,304c-3-1.25-5.54-.57-8.79,2.43,1.14-8.36,19.21-6.66,7.06,5,9.52,3.92,6.48,18-4.12,12.61a2.51,2.51,0,0,1-1.65-2.49c8.86,6.21,13.67-3.9,4.22-8.49C281.79,310.16,289.34,307.59,288.2,304Z"/><path class="cls-4" d="M409.55,308.77c-.43,1.4,1.83,3.1.45,4.11-2.29-.33-2.93-5.62-4.22-7.65-2.77,19.24-15.95-6-2.09-4,1-2.33-1.86-5.5-.06-7.39,2.72,1.08,2.6,9.58,4.86,12l0,0c0,.42-.08.85.38,1.11a1,1,0,0,0,.35,1.08l0,0c0,.31-.06.66.38.75Zm-5.47-5.54c-5.11-3-5.65,5.67-2.14,7.26C404.27,309.36,404.08,305.67,404.08,303.23Z"/><path class="cls-4" d="M307.91,317.8c6.43,2.19,16.3-5.26,7.26-9.7-4.86.35-9-5.1-4.4-8.6,3.1-3.79,12.86.17,7.12,3.78-2.07-.11,2-2.26-.63-3.25-3.68-2.4-10.24,3.85-4.52,5.83,2.12.5,4.66,0,6.14,2C327.75,317.74,307.65,323.34,307.91,317.8Z"/><path class="cls-2" d="M219,66c2.84,8.21-7.26,6.42-9.48,1-2.77-6.37-2.66-13.69-2.37-20.52,0-.66-.27-1.82.94-1.77,2,1.44.69,7.69,1.37,10.34.57,5.15,1,11.88,6.32,14.44C218,70.46,217.46,66.87,219,66Z"/><path class="cls-2" d="M147.45,171.71c-3.29,9.55-11.79,2.41-8.4-4.74,1.46-4.63,8.87-3.58,10,.54,0,3.39,2.94,10.31,1.45,12.79C147.73,179.22,148.61,174.51,147.45,171.71Zm-.92-5.27c-3.46-3-7.18,1.3-5.92,5.35C143,179.13,147.23,170.22,146.53,166.44Z"/><path class="cls-2" d="M202.77,165.15c1.28,1.51,1.31,3.65,2.74,5.38-1.45-12,14.17-5.53,10.82,3.21C212.74,182.83,200.36,171.5,202.77,165.15Zm4.18,7.41c2.12,2.55,7.17,3.93,7.55-.62,1.14-4.16-6.68-9.14-7.19-3.07A14.32,14.32,0,0,1,207,172.56Z"/><path class="cls-2" d="M432.05,266.7c.59-.07.61.71,1.21.74,1.54-8.75,16.27-6,14.14,3.79C444.82,282.92,432,275.23,432.05,266.7Zm2.06,3.08c2.15,5.25,9.36,8.69,11.3,1.41C447.33,262.88,435.28,261.19,434.11,269.78Z"/><path class="cls-3" d="M365.14,535.45c1,2.44-9.58,6.67-11.71,10a106.62,106.62,0,0,0,17.89,9.88c-1.68,3.16-11.64-4.1-14.58-5-2.06-1.29-7.61-3.76-4.33-6.51A45.06,45.06,0,0,1,365.14,535.45Z"/><path class="cls-2" d="M234.64,391.1c.14-4.25-6.35-1.41-5.2,1.87.37,4.7,5,9.35,9.92,7.57.53-.24,1.1-.57,1.65,0-1.41,5-9.36,2.32-11.71-.8-4.37-4.22-2.35-15.15,5.09-12.05C235.92,388.4,237.12,390.09,234.64,391.1Z"/><path class="cls-2" d="M152.7,178.23c3.26,1.31,6.11-.3,7.92-2.65,1.56-3.7-4.81-5.22-5.23-8.86-2.19-6.82,12.09-3.75,7.81.68-2.16-5.6-11-3.6-.93,4.1C167.21,176.25,155,184.11,152.7,178.23Z"/><path class="cls-4" d="M384.07,302.57c.53,0,.55.53.91.72,2.25-5.47,10.25-3.26,11.34,2.32C397.24,316.66,380.73,310,384.07,302.57Zm2.05,3.68c1.86,3.75,9.64,4.44,7.82-1C391.89,300.88,386.78,301.12,386.12,306.25Z"/><path class="cls-4" d="M386.49,310.48c1.21,4.68-5.44,3.5-7.95,2.48-7.71-1.55-3.84-16.94,3.28-12.11,1.25,1.22.92,2.66-.73,3.19a.38.38,0,0,1-.26-.41c.55-1.59-1.71-2.16-2.51-.95C373.91,307.73,381.48,313.88,386.49,310.48Z"/><path class="cls-2" d="M428.5,265.48c-.76-5-6.71-1.25-5.56,2.53.16,2.83,4.12,10.36,7.06,6.9.36-.54.61-1.18,1.38-1.48,1,11.35-14,0-10.3-7.91C421.35,260.92,430.81,260.05,428.5,265.48Z"/><path class="cls-2" d="M222.74,170.78c4.3-1.09,8.18-.55,12.12.48-1.69,3.56-11.81-2.43-11.8,4-.41,2.11,1.44,6-.87,7,0-4.82-3.43-16.35.71-19.3C222.93,165.75,222.63,167.94,222.74,170.78Z"/><path class="cls-2" d="M492.1,265.48c.56-1.87-2.6-28.54,1.92-20.39C495.2,247.91,495.39,265.54,492.1,265.48Z"/><path class="cls-3" d="M348.78,535.25c2,2.34,1.06,6.39,1.71,9.37-.24,4.51,1.6,10.06.65,14C349.21,558.3,346.57,536.11,348.78,535.25Z"/><path class="cls-4" d="M307.91,5.61c2,.33-.87,23.73-2.45,24.13-1.79-2,.63-12,.61-15.5C306.91,11.58,305.87,7.48,307.91,5.61Z"/><path class="cls-2" d="M586,291.11c-5.61,2.67-16.12,5-22.3,4.54a1.13,1.13,0,1,1,.28-2.24C571.59,293.91,578.53,291.15,586,291.11Z"/><path class="cls-2" d="M103.68,293.89c-.92,2.81-31.87,2-23.26-1.12C88.15,294.35,95.89,294,103.68,293.89Z"/><path class="cls-2" d="M331.91,288.69c-1,2.22-25.39,5-21.78.89C317.37,290,324.73,289.22,331.91,288.69Z"/><path class="cls-2" d="M529.6,289.87c-.7,2.16-18.15,5-17.22,1.15.22-1.14,1.49-1,2.39-.91C519.77,291.21,524.65,289.26,529.6,289.87Z"/><path class="cls-2" d="M269.5,288.34c-1.22,1.13-27.87,3.91-20.27-.1,6.75.57,13.48-.32,20.23-.33Z"/><path class="cls-2" d="M382.49,286.22c-1.4,2-17.4,4.95-17.73,1.88.24-.88,1-.91,1.75-.84C371.93,288,377.09,286,382.49,286.22Z"/><path class="cls-2" d="M478.18,284.39c-.71,2.15-24.38,1.51-17.07-1.28C466.6,284.54,473.17,283.4,478.18,284.39Z"/><path class="cls-2" d="M44.59,292.91c-.78,3-24.27,5-18.43,1.13C32.45,295.08,38.42,294,44.59,292.91Z"/><path class="cls-2" d="M162.71,292.91c-.75,2.19-21.79,5.5-15.9,1.32C152.27,294.64,157.29,293,162.71,292.91Z"/><path class="cls-2" d="M201.89,72.86c-2.73.53-2.53-8.32-3.45-10.47,0-1.34-.79-4,.82-4.55C201.37,59.66,200.14,69.11,201.89,72.86Z"/><path class="cls-2" d="M617,288.8c.44,5.08-7.65.94-10.48,1-2.13-.07-1.59-2.65.38-2C610.25,288,613.68,290.21,617,288.8Z"/><path class="cls-3" d="M377,546.55c-.28-4.15-1.37-8.09-2.12-12.17-.14-.74-.51-1.59.33-2.14C377.13,531.41,379.81,547.17,377,546.55Z"/><path class="cls-2" d="M425.5,286.56c-.77,2.72-19.21,3.19-15-.21C415.57,287.51,420.51,287.13,425.5,286.56Z"/><path class="cls-2" d="M217.26,293.11c-1,1.3-19.32,6.91-14.83,2.22C207.56,296.21,212.51,292.59,217.26,293.11Z"/><path class="cls-3" d="M379.48,555.89a1.2,1.2,0,1,1,0-2.39C381.5,553.58,381.85,556,379.48,555.89Z"/><path class="cls-3" d="M310.25,555.75c.19,1-1.17,1.43-1.44.45,0-1-1.82-1.7-.81-2.6C309.26,552.75,310.11,554.8,310.25,555.75Z"/><path class="cls-2" d="M319.22,278.89c1.41-.2,2.7,2.14,1,2.53C319.25,281.57,317.49,279.15,319.22,278.89Z"/><path class="cls-4" d="M312.75,25.65c.08,2-2.32,1.59-2.44.09C310.19,24.47,313,24.1,312.75,25.65Z"/><path class="cls-4" d="M298.58,323.05c-.91.05-2-1.88-.62-2C298.82,321,299.94,322.83,298.58,323.05Z"/><path class="cls-2" d="M199.07,50.07c-1.24,0-.85-1.74.17-1.68C200.54,48.23,200.11,50.1,199.07,50.07Z"/><path class="cls-2" d="M74.16,504c-.26-.84-1-1.12-1.7-1.44-3.47-1.36.25-3.18.74-5.18-1.59-.95-2.23,1.31-3.67,1.07-.49-6,10-3.4,4.52,2,8.21,5.27-4.31,11.65-5.35,5.7C70.35,504.78,72.13,506.78,74.16,504Z"/><path class="cls-2" d="M48,501.76c-7.81,2.32-4.35-9.11,1.45-4.6,1.27,2.46.66,5.73.9,8.48,0,.57-.08,1.17-.77,1.21C47.84,506.25,48.59,503.37,48,501.76Zm-.58-4.07c-1.44-.29-3.38,1.53-1.8,2.65S48.34,498.93,47.41,497.69Z"/><path class="cls-2" d="M54.87,498.18A1.66,1.66,0,0,0,56,500.35c7.17,2.94-2.2,9.18-2.51,4.09,1.09.16,2.26.39,3-.92-.27-.78-1.05-1-1.68-1.43-3.42-2.48-2.41-6.45,1.94-6.27.7-.12,1.4-.05,1.51.81C58.26,498.21,55.9,497.77,54.87,498.18Z"/><path class="cls-2" d="M61.43,499.82a4.83,4.83,0,0,0,2.16.1c-.17-3.26,2.23-3.57,2.06-.11,1,.47,2-.16,3,.18-.09,1.13-.09,1.13-2.9,1.81-.46.8.23,1.89-.58,2.72-1.49-.12-.93-1.5-1.35-2.29-1.69-.25-4.08.07-4-2.33.13-.9-.46-2.83.82-3,.62,0,.61.62.66,1.09S61.11,499.22,61.43,499.82Z"/><path class="cls-2" d="M210.59,442.56a2.83,2.83,0,0,1,2.39.07c7.32,2.74,22.09-5.61,7.55-8.32-2,.39-4.5-1.59-2.22-3.15,10.13-3,2.25-10.51-2.92-4.3-.4,1.25-1.91.76-1.56-.48,1.85-9.28,19-1.76,10.21,5.22C242.66,441.63,214.29,452,210.59,442.56Z"/><path class="cls-2" d="M170,424.65a37.62,37.62,0,0,0,1.15,7.22c7-2.68,19.62,7.6,9.24,12.07-3.92,1.05-9.74,2.24-12.65-1.31-1.39-4,4.72,2.2,11.76-2.22,4.32-2.65-3.83-6.31-6.5-5.92-1.94.2-4,.16-4.58-2-.68-2.85-2.92-9.35,1.37-10,3.12.34,8.7-2.48,10.75.09C179.5,425.85,173,423.58,170,424.65Z"/><path class="cls-2" d="M199.71,433.17c-4.56-18.4.57-17.47,2.38,0a23.28,23.28,0,0,0,8.43-1.31c1.53,3.9-5.77,2.77-7.93,3.78-.18,2.57,1.7,5.69.35,8-2.45-1.4-1.69-5.35-2.68-7.78-3.86-.34-10,1.84-12-2.77-.53-2.79-2.72-7-1.13-9.4.64-.22,1,.2,1.28.7C190.89,434.11,189.19,433.66,199.71,433.17Z"/><path class="cls-2" d="M599.77,427.39c2.08,10.3-27.84-3.54-27.8-9.55-.81-1.43-3.15-2.45-1.34-4.18l.72,1a6.51,6.51,0,0,0,.54-2.35c-2.48-.46-5-.15-7.46-.53-.57,5.4.59,11.66-1.54,16.39a1.4,1.4,0,0,1-.63-1.56c.83-4.93.29-9.94-.44-14.83-4.05-.64-8.2-.3-12.36-1.15,2.88-1.91,8.61,0,12.3-.58-.35-6-.91-12-.69-18.12,3.36,2.62,2.15,13.49,3.31,18.13,2.72.65,5.8-.77,8.49,1.11,10.63-10.55,20.12,9.15,4.12,8.35C579.73,423.06,596.37,432,599.77,427.39Zm-21.08-9.92c3.72.71,7.09-4.36,3.35-6.52C576.3,407.57,569.69,417.79,578.69,417.47Z"/><path class="cls-2" d="M474.78,424.43c3-6.48.67-19.55,6.62-23.46-3.9,16.14-1,42.41-16.91,11.91-1.63,26.08-5.63,23.45-10.28,0-.1-2.87-3.3-11.57-1.85-13.12.75-.16,1,.54,1.18,1.11,2.86,8.88,3.86,18.26,7,27.06,2.16-3-.86-22.53,5.5-17.41C469.38,415,470.91,420.3,474.78,424.43Z"/><path class="cls-2" d="M502.79,418.77c.72.2,1,.81,1.72,1.12.6-6.24-3.09-21.81.93-25.86.82,5.33-.43,12.22.87,17.78,5.59-7.95,21.27-1.11,14.32,7.84C516.41,424.34,504.6,426.59,502.79,418.77Zm3.06,2.33c5.67,4,19.66-3.72,11.83-9.73a7.26,7.26,0,0,0-11.28,6C506.23,418.68,506.89,419.94,505.85,421.1Z"/><path class="cls-2" d="M490.39,419.4c2.56,7.22,11.7,10.72,17.94,6.13-3.5,9.32-19.63,2-20.82-5.92-4.9-1.51-7.19-4-6-6.7a7,7,0,0,0,5.63,4.55C490.08,400.7,508.58,413.48,490.39,419.4Zm-.39-2c2.49-.66,7-2.67,6-5.77C492.94,409.67,489.41,414,490,417.35Z"/><path class="cls-2" d="M522.36,423.26c.5-.06.69.1.82.29a8.51,8.51,0,0,0,5,3c4,1.64,16.29,2,12.83-5-2.48-3.42-6.74-5.12-9.11-8.6-1.68-4.07,5.36-4.71,8-3.78,2.49.78,1.61,3.73-1.07,3.11.26-.71,1.53-.37,1.41-1.35-1.69-1.15-4.2-.9-6.68.7,2.27,3.55,6.94,5.11,9.34,8.72C549.89,432.36,523.41,432.23,522.36,423.26Z"/><path class="cls-2" d="M547.08,414.38c1.65-8,4.16,13.75,4.66,15C549.41,432,547.4,416.33,547.08,414.38Z"/><path class="cls-2" d="M550.87,400.22c.67,1.16,1.14,3.91-.43,3.93C549.11,403.53,550,401.3,550.87,400.22Z"/><path class="cls-2" d="M599.81,160c1.89,10.35-27.88-3.55-27.86-9.6-.84-1.39-3-2.28-1.42-4.06.5,0,.31.75.92.76a5.17,5.17,0,0,0,.38-2.25l-7.41-.38c-.34,5.51.16,11-1.2,16.36-1-.27-1.14-.93-1-1.46.93-5,.09-9.89-.37-15-4-.89-8.78.29-12.39-1.47,4-1.08,8,0,12.24-.34-.33-6-.94-12-.65-18.1,3.47,3.62,2.1,13,3.25,18.18,2.76.72,5.79-.77,8.48,1.16,10.71-10.56,20.18,9.11,4.07,8.4C580.33,155.7,595.87,164.6,599.81,160Zm-21-9.9c3.5.67,6.77-4.14,3.47-6.38C576.53,139.94,569.49,150.22,578.83,150.07Z"/><path class="cls-2" d="M481.38,133.51c-4.1,16.48-.61,42.48-17,12-2.44,41.19-10,2.77-12.57-12.25,2.67-5,6.61,24.39,8.66,27.16,2.3-2.53-.84-21.93,5.39-17.49,3.48,4.35,4.88,10.07,8.9,14C478,149.89,475.18,138.53,481.38,133.51Z"/><path class="cls-2" d="M502.83,151.25c.6.47,1.05.84,1.75,1.4.41-6.28-3.11-22.07.87-26,.79,5.36-.45,12.23.87,17.78,5.37-8.09,21.32-.9,14.3,7.85C516.45,157,504.28,159.22,502.83,151.25Zm3,2.45c5.66,4,19.66-3.74,11.82-9.73a7.26,7.26,0,0,0-11.28,6C506.23,151.27,506.88,152.55,505.86,153.7Z"/><path class="cls-2" d="M487.38,152.18c-4.81-1.52-7-3.9-5.88-6.72a7,7,0,0,0,5.63,4.61c2.94-16.75,21.46-4,3.27,1.92,2.42,7.16,11.75,10.79,17.91,6.13C504.79,167.67,488.59,159.75,487.38,152.18Zm2.58-2.3c3.22-.69,6.9-2.93,6.11-5.63C493.07,142.19,489.51,146.5,490,149.88Z"/><path class="cls-2" d="M538.82,144.81c.26-.64,1.4-.26,1.32-1.47-2.27-1.14-4.42-.3-6.61.73,1.89,3.69,6.8,5.13,9.16,8.69,7.82,12.13-19.59,12.09-20.28,3.11,4.51,3.72,12.64,6.4,18.07,2.59,4.54-5.08-6.05-8.6-8.29-12.38-3-4.24,5.25-5.51,7.92-4.2C542.31,142.88,541.19,145.65,538.82,144.81Z"/><path class="cls-2" d="M547.09,147.11c1.57-8.37,4.1,13.52,4.67,14.73C549.63,165.09,547.32,148.84,547.09,147.11Z"/><path class="cls-2" d="M550.55,133c1.58-.07.85,2.3.74,3.25C549.53,138.28,549.48,133.87,550.55,133Z"/><path class="cls-2" d="M186.67,106.79c-.18,2.78-3.64,2.35-5.07.87-4.35-3.59-6.51-8.18-7.57-13.66-8.75.33-4.07,7.38.45,10.34.8.89,1.85-.14,2.71.4-1.81,8.43-21.42-12.73-2.54-12.2,3.25-13.55,20.64-13.91,26.93-2.46,6.39,9.7-5.39,21.72-12.75,10-4.12,8.51-8.72-2.7-4.49-6.56,2.22-2.73,8.7.49,6.55,3.83-.92-.13-.18-1.12-.75-1.42,7,18,19.9-5.41.35-11.43-7.74-2.42-14.83,6.79-12,13.93C180.12,102.06,182.22,106.76,186.67,106.79Zm1.4-12.42c-3.63-.68-3.51,4.17-2.29,6.4C187.61,99,187.24,96.51,188.07,94.37Z"/><path class="cls-2" d="M140.07,92.15c-4.13-4.08-5.56,8-1.44,8.73,2.09-2.58,1.41-6.49,2.34-9.57a1.23,1.23,0,0,1,2.43.15c.14,3.89.75,8.33,4,10.87,4.45-4.35-.46-12.5,2.57-17.81,2.12,2.82.45,8.82,1.45,12.49.62.2.73-.33,1-.57,3.79-3.9,12,0,8.39,5.4-2.62,3.73-9.77,7.8-11,1.08-3.24,4.25-6-.82-7.74-3.77-3.57,10.26-11.09-1.93-6.88-7.48C135.87,89.07,141,88.35,140.07,92.15Zm11.39,12c2.72,2,10.35-4.67,6.14-6.71C152.46,95.73,152.92,101.21,151.46,104.15Z"/><path class="cls-2" d="M216.52,95.6c.13-3-1.59-8,1.29-9.49a1.2,1.2,0,0,1,1.2,1.13c.07,5.66.32,12.1,4.54,16.38.75-.18,1.1-1.12,2.07-1.07.7.94.19,1.78-.33,2.55-2.73,2.94-5.8-2-7-4.21-1.54,2.76-3.18,7.46-7.29,4.37C206.68,101.51,210.59,92.73,216.52,95.6Zm-4.85,5c.19,6.56,5.67,1.68,4.15-2.06.62-1-.5-1.68-1.57-1.49C212.57,97.15,211.71,99.29,211.67,100.6Z"/><path class="cls-2" d="M263.76,93.66c1.82,1.59,1.46,3.77,2.17,5.5,3.68-4.39,7.6-1.94,9.18,2.78,6.58-17.23,15.18,10.41,9.21,2.67a47.68,47.68,0,0,0-3.17-4.78c-4.22-4.56-3.26,9.7-7.18,5.5-1.49-3.76-4.46-10.33-7-3-.24.87,0,2.4-1.23,2.49C263.35,104,263.08,95.89,263.76,93.66Z"/><path class="cls-2" d="M250.49,98.3c.84-2.29-2.47-5.55.95-6.69-.19,1.27-.48,2.45.28,3.52,8.65-5.9,12.45,11.92,3.3,7.88C253.06,101.8,252.69,99.08,250.49,98.3Zm6.17,3.1c3.49-2.22-1.2-7.56-3.88-4C253.83,99,254.86,100.57,256.66,101.4Z"/><path class="cls-2" d="M242.26,95.7l.09-1c-4.22.11-1.66,6,1,7,2.27,1.76,3.09.89,5.34-.09-.75,9.26-19-4-8.39-8.91C242.43,91.36,246.16,95.11,242.26,95.7Z"/><path class="cls-2" d="M228.07,101c1,.29,2.35-.63,2.57.87.16,1.11-.91,1.16-1.65,1.46C228.15,102.71,228.27,101.88,228.07,101Z"/></g></svg>