<svg xmlns="http://www.w3.org/2000/svg" viewBox="0 0 620 346"><defs><style>.cls-1{fill:#fff;}.cls-2{fill:#090909;}.cls-3{fill:#099707;}.cls-4{fill:#b26e94;}.cls-5{fill:#8f8181;}</style></defs><g id="Layer_2" data-name="Layer 2"><rect class="cls-1" width="620" height="346"/></g><g id="Asim_2FA_Article_01_Image" data-name="Asim_2FA_Article_01 Image"><path class="cls-2" d="M49.62,196.43c-.54-10.46-1.9-21-.78-31.48-.57-4.07,2.65-12.64,0-15.21-2.5.94-32.93,38.86-28.45,25.16,5.12-6,23.33-30.34,30.37-29.5,1.69-6.86,1-13.73,3-20.42-28.32,3.46-20.52-45.49-9.8-42.56C79.82,57.17,98.59,124,55.91,125c2.27,8.08-.12,16.55-1.14,24.67,27.3,17.41,29.1,34-.6,5.2-2.38,14.44-.35,29.27-1.57,43.79,3.29,1.59,38.09,27.65,27,28.91C67.37,221.82,58.12,210.43,48,201.5c-38.71,32.66-33.62,17.7-1.32-3.92C47.15,196.27,48.61,196.92,49.62,196.43Zm5-75.73c22.73,1.71,30.67-27.23,11.54-38.3C39.79,70.45,25.2,122.5,54.57,120.7Z"/><path class="cls-2" d="M509.49,108.8c27-.83,54.2-.12,81-1.64,7.63-3.09,4.32,12,5.89,16.32q3.14,34,6.07,68c0,1.41.78,3.85-1.44,3.59-43.09-1.38-86.17-3.22-129.24-5-4.77-1.08-32.14.92-31.64-2.88-4.06-24.7-7.89-49.44-11.75-74.18-.29-2.5-.35-3,2.3-2.9,26.27-.16,52.53-1.26,78.8-1.11Zm83.16,1.11c-53.58-.93-108.27,1.75-162.22,2.35,4,24.89,8,49.63,12.06,74.46,52.69,2,105.23,4,157.76,6.16Q596.43,151.18,592.65,109.91Z"/><path class="cls-3" d="M265.39,243.74c35.31,30,91.4,48.22,132.57,19.07,16.89-12.35,37.83-26.87,40.8-49.15,0-.56.05-1.18.72-1.26,2.4.8,1.2,4.92.92,6.84-30.18,74.05-124.45,78.6-178.26,26.45-.69.86,0,2-.77,2.87-.68-2.25-.26-4.35-.52-6.56a3.6,3.6,0,0,0-1.77-.8c-2.18,6-.09,12.34.19,18.46-5.65,13.46-14-35.19,8.93-23.13,4.44,2.54,17.11,3.45,18.19,8.39C283.58,251.29,270.8,243.78,265.39,243.74Z"/><path class="cls-2" d="M110.6,113.05c.24-11.21,4-22.65,4-33.81-.63-1.35.38-2.49,2-2.24,58.08,1.27,116.22,1.6,174.32,2.46,1.73,0,3.34-.2,3.2,2.15.82,10.94,1.82,21.87,2.53,32.81.22,1.7-.95,1.85-2.34,1.78C233.1,114.8,171.57,115.26,110.6,113.05ZM291.92,81.64c-58.53-.25-117.4-2.4-175.75-1.55-1.37,10.63-2.72,21.16-4.08,31.76,60.93.64,121.64,1.63,182.39,2.27C293.62,103.18,292.78,92.5,291.92,81.64Z"/><path class="cls-2" d="M293.41,222.27c-1.51-11.59-3-23-4.47-34.29-55.48-3.3-128.09,3.19-175.36-4,58.34.91,116.7,1.19,175,2,1.77,0,2,.15,2.19,1.86,1.42,11.53,3,23,4.46,34.58,1.16,3.55-13.92,1.17-16.5,1.94q-78.18.72-156.34,1.54c-3.21,0-3,0-3.44-2.77-1.64-11-4.64-21.94-4.9-33.08h.36c2.22,11,4.32,22.82,6.75,34Z"/><path class="cls-4" d="M411.06,93.19c-2.76.33-3.62-3-5-4.78-7.9-11.33-14.51-24.35-25.82-32.69-24.08-17.36-61.7-17.6-85.15,1-3.3,1.55-8.23,10-11.34,8.6,16.61-29.57,63.63-32.24,91.82-17.18,17.26,9,27.28,26.77,35.75,43.59.71-8-1.28-16.32.38-24.13,6.37-6,6.34,25.62,4,28.49-3.23,8.44-10.6-.32-14.61-3.42-4.58-3.65-9.28-7.38-14.44-10.17-.54.13-.37.5-.45.75-.78,1.82-2.42-1-2.73-1.87,1.82-9,23.21,11.83,27.4,13.65a2,2,0,0,0,.28-1.78c.22,0,.24-.14.1-.3Z"/><path class="cls-4" d="M339.34,23.53c.84,6,9.66,5.56,14.27,5.25,2.33-1,.31-5.55,1-7.75-.06-1.66.8-5.81,2.32-2.37,10.81-8.43,11.25,4.92,12.13,12.54.14.64.26,1.23-.48,1.49-2.71,0-2.11-4.58-2.79-6.48-.86-2.33.17-7.67-3.33-7.56a5.54,5.54,0,0,0-5.38,5.07c-.58,1.91,1.3,6.75-2.23,5.76-2.55,3.71-8.13,1.82-11.85,1.31-7.66-1.31-8.61-12.54-2.29-15.81C353.47,8.33,349.7,24.22,339.34,23.53Zm-.13-2.2c2.47.7,10.74-4.65,6.21-5.85C342.38,15.87,339.13,17.83,339.21,21.33Z"/><path class="cls-3" d="M272,309.76c-4.19-25.25,35.22-26.25,7.19,15.59,5.72.76,11.5,5.42,17.27,3.28-.35,7.64-16.56-3.57-19.68.09-.87,1.2-2.55-.19-1.67-1.31C301.21,290.7,275.78,283,272,309.76Z"/><path class="cls-3" d="M325,309.7c-3.23-7.34,2.4-17.54,11.47-14.39,13.12,5.09,11.69,24.54,3,31.28-3.43,4-9.26,3.42-11.56-1.41-3.13-6.89-10.22-17.13-4.17-24-3,5.8,5.85,32.58,14,24C357.59,305.49,326.09,280.81,325,309.7Z"/><path class="cls-2" d="M190.68,164.78c-1.39,9.43-5.25,22.69-13.91,8.52-.45,3.14-1.85,9.85-4.73,3.67-1.45-2.44-1-6.34-3.06-8.12,1.88-3.47-3.85-4-5.89-2.88.24,2.08,2.47,2.71,3.7,4.1,7.69,6.59-8.58,11.58-9.95,3.84.87-.14,1.43.45,2,.84,2,1.86,9.65.93,6.66-2.66-6.86-4.5-5.85-10.66,2.85-7.62.64.31,1.26.88,1.77,0,2.33,2.85,1.66,7.73,4,10.72.56-1.39.41-2.94.89-4.35,3.54-6,6.16,10.49,9.86,4.94C187.57,172.64,187.54,167.22,190.68,164.78Z"/><path class="cls-3" d="M378.26,323.91c1.07,7.25-22.87-12.21-23.39-15.09-.94,3.57-.07,8,0,11.89-.17,1,1,2.13-.17,2.76-2.21-1.72-4.41-27.18-1.84-29.09,2.26,3.48.78,8.87,1.67,13.06-.3-2.22,22.95-17.76,17.66-11.35-2.54,3.22-19.2,9.54-13.65,13.71C365,314.32,370.72,322,378.26,323.91Z"/><path class="cls-4" d="M384.19,17.79c1.28-3.15-1.58-9.21.91-10.92,3.25,1.68,1.4,11.32,3.22,15,1.33,4.34,5.08,10.57,9.88,7.67-.19,9.61-12.79-1.45-12.38-6.76C376.38,46,364.28,12.07,384.19,17.79Zm-.1,1.88a5.37,5.37,0,0,0-7.68,7.18C379.78,32.64,383.8,22.91,384.09,19.67Z"/><path class="cls-2" d="M157.15,57.72c-5.81,2.57-2.15,10.49-5.26,13.52-3-1.64-2-7.13-3.76-10-1.79-4.12-5,1.51-4.84,3.83-.65,1.32,1.55,7.58-1.08,6-.76-4.68-2-9.54-2.05-14.25,1.94.82,1.1,3.24,2.13,4.73,4.29-6.74,6.94-3.86,9.19,2.13.52-6.14,7.55-12.39,9.4-3.14.37,1.69,5.7,17.56,1,9.76C160.13,66.21,159.67,61.38,157.15,57.72Z"/><path class="cls-2" d="M134.21,207.19c2.19,1.27,3.84,3.15,6.58,2.78,1.2,3.87-4.34.67-6,.43,2,12-2.06,8.89-2.74-.56-2,.49-3.26,3-5,4.21-4.38,1.44,2.38-5.46,3.21-6.53-1.22-.84-10.46-8.67-5.94-8.28,2.15,1.87,4.38,4.08,6.9,5.22.24-2.5-.82-5.18.45-7.59,2.49,1,1.39,4.28,2.36,6.63,1.33-.91,6.48-7.25,6.21-3.1C138.44,203,136.18,204.51,134.21,207.19Z"/><path class="cls-2" d="M152.53,203.15c-.31-1.21-1.32-9.63,1.19-5.71.74,2.33.77,5,1.85,7.15,13.09-9.87,9.06-3,.36,3.11,1.13,1,3.45,4.11,4.53,2.71,1,.39,1.51,1.66,1,2-1.55,1.11-3.06-.84-4.63-1.39-.58,1.66,3,8.6-.28,7.1-1.44-2.61-1.3-5.79-2.61-8.45-7.18,8-7.89,5.35-1.46-1.68-5.45-5.89-6-6.74-5.59-8.58C148.07,198.54,153.29,206.73,152.53,203.15Z"/><path class="cls-2" d="M121.21,69.68c0,.64.45,1.36-.46,1.78-.86-.4-.33-1.29-.64-1.87s-1.29-.39-1.49-1.24c.19-.62.82-.1,1.28-.51.15-17-7.34-27.64,16.28-24,.89,0,2.42.58,1.46,1.7C121.3,44.4,120.23,41.07,121,58.23c4.9.84,9.6.37,14.42.53,2.63,3.32-12.25.45-14.21.47V68c3.31,1.51,13.14-1.15,14.71,2.2C131.68,71.54,125.88,68.92,121.21,69.68Z"/><path class="cls-2" d="M196.29,207.72c-.06,2.4,2.05,6.34.35,7.56-2.2-.33-1.79-6.24-2.75-8.38-1.85,1.08-2.57,3.41-4.46,4.22l-.39-.44c1.36-1.85,2.73-3.69,4.13-5.58-6.7-5.87-12.44-17.31-.35-4.14.22-2.22-1.45-6.58,1.18-7.4.85,2.44.83,5.41,1.36,8,2.81-1.15,8-8.24,11.27-5.79a63.34,63.34,0,0,0-10.92,8.91,22.63,22.63,0,0,0,5.6,4.5C202.36,212.42,197.45,208.49,196.29,207.72Z"/><path class="cls-2" d="M174.73,209.89c-2.37,1-3.84,4.72-6.32,4.35,1.15-2.5,3.64-3.83,5.19-5.91-5.76-7.15-5.82-7.25-5.73-9.41,2.6,1.14,3.34,3.82,5.71,5.41-1.14-13.76,2.35-9.87,3,.82.59.26.83-.16,1.12-.41,12-9.41,9.63-4,.17,2.33-2.67,1.63,3.2,4.43,4.72,5,.46.12.85.47.57,1.28-2.13.43-3.49-1.59-5.55-2-.35,2,2,4.51.58,5.94C175.29,217.18,175.8,212.05,174.73,209.89Z"/><path class="cls-2" d="M237.54,169c-.48.26-.38.9-1,.93-.76-.74-1.82-2.13-1.74.14-1.43,18.35-16.14-1.83-1.52-3.77.46-1.57-1.41-11.71,1.8-8.8.55,4,6.68,18.59,11.65,13.26C247.37,177.43,239.28,171.76,237.54,169Zm-4.36-.78a4.07,4.07,0,0,0-2.13,7.49C232.79,173.51,232.86,170.9,233.18,168.18Zm3-.92-1-1.56C235.07,166.78,235.07,166.78,236.2,167.26Z"/><path class="cls-2" d="M188.73,69.42c-2.1,6.32-9.84-1.15-11.86-4.22-1.06,1.16-.45,3.27-1.54,4.66a4.92,4.92,0,0,1-9.27-1.27c-2.5-8.34,7.71-19.11,11.76-7.25C179.46,65.43,183.4,72,188.73,69.42ZM175.1,58.7c-5.67-4-7.85,6-6.63,9.89a2.66,2.66,0,0,0,2.23,2.08C176.24,70.36,174.36,62.46,175.1,58.7Z"/><path class="cls-2" d="M115.33,168.69c0,1.86,1.64,12.21-1.91,7.65-.42-1.83-2.64-27.09,1.13-17.52,2.33-3,11.19-5.5,10.57.51C123.74,163.54,120.46,169.29,115.33,168.69Zm7.4-10.52c-6.38-1.73-8.18,4.68-7.46,9.54C119,166.89,122.88,161.87,122.73,158.17Z"/><path class="cls-4" d="M317.83,26.44c3.5,3.59,9,3.24,12.83.26,4.72-5.92-6.08-9.07-9.21-12.45-4.14-4.93,4.83-9,8.42-5.95a1.85,1.85,0,0,1-1,3.47c1.95-3.39-4.12-3.28-5.71-1.69-5.18,5.1,17.59,8.14,9.13,18.32C328.55,32.11,317.58,33.06,317.83,26.44Z"/><path class="cls-2" d="M209,65.94c2.8,8.27-7.3,6.42-9.51.94-2.74-6.38-2.65-13.7-2.36-20.53-.37-2.38,2.17-2.32,1.82,0,1,7.64-1,18.81,7,23.1C208.1,70.17,207.41,66.89,209,65.94Z"/><path class="cls-2" d="M137.43,171.77c-3.6,10-12.27,1.46-8-5.47,1.78-4,8.78-2.54,9.68,1.24.2,4.08,2.51,9,1.58,12.72C137.79,179.89,138.61,174.29,137.43,171.77Zm-.93-5.33c-4.34-3.38-7.43,2.65-5.54,6.41C134.08,178.19,137.08,169.39,136.5,166.44Z"/><path class="cls-2" d="M195.51,170.58c-1.49-12.11,14.18-5.63,10.82,3.19-3.61,9.06-16-2.31-13.56-8.63C194,166.64,194.09,168.7,195.51,170.58Zm1.46,2c2.21,2.54,7.15,3.86,7.53-.67,1.09-4.13-6.6-9.08-7.18-3.12A16.93,16.93,0,0,1,197,172.59Z"/><path class="cls-2" d="M142.59,178.23c3.26,1.25,6-.2,7.89-2.44,2-3.71-4.62-5.37-5.07-9-2.13-7.54,12.56-3,7.78.57-2.13-5.55-11-3.59-.91,4.13C157.18,176.3,145,184.11,142.59,178.23Z"/><path class="cls-2" d="M212.2,182.29c-.08-3.91-3.46-18,.87-19.19a35.08,35.08,0,0,0-.22,7.61,23.41,23.41,0,0,1,12,.56c-1.7,3.55-11.81-2.43-11.8,4C212.65,177.41,214.51,181.24,212.2,182.29Z"/><path class="cls-4" d="M297.79,5.56c2.6,4.87-1,16.82-1.48,22.81C293.23,36.53,296.21,5.71,297.79,5.56Z"/><path class="cls-3" d="M387.73,302c-.59,2.44,1.37,8-1.16,9a85.17,85.17,0,0,1-1.23-18.44C388.17,289.34,387.38,300.46,387.73,302Z"/><path class="cls-2" d="M191.89,72.86c-2.64.76-2.65-8.6-3.48-10.64-.55-1.24.19-6.67,1.7-3.45C190.46,63.52,190.69,68.15,191.89,72.86Z"/><path class="cls-3" d="M385.5,322.65c2-1.12,3.95-.56,2.72,2.13C386.9,326.55,385.05,324.34,385.5,322.65Z"/><path class="cls-3" d="M306.64,329.4c-.35,3.09-4.75-1.57-1.77-1.92A1.86,1.86,0,0,1,306.64,329.4Z"/><path class="cls-4" d="M302.77,25.47a1.25,1.25,0,1,1-2.46.25C300.18,24.51,302.86,24.16,302.77,25.47Z"/><path class="cls-2" d="M189.14,50.07c-1.24.09-1-1.67,0-1.68C190.47,48.13,190.21,50,189.14,50.07Z"/><path class="cls-2" d="M553.19,160.9c-.92-.49-1.07-1.05-.94-1.57,1-5,.09-9.88-.33-15-4.06-.89-8.8.31-12.42-1.48,4-1.07,8,0,12.19-.33,0-6-1.21-12-.47-18.06,3.34,4.1,2,12.76,3.13,18.13,2.74.73,5.77-.76,8.48,1.16,10.71-10.55,20.19,9.09,4.09,8.41,3.79,3.58,18.5,12.3,22.78,7.82,2.36,10.28-27.9-3.57-27.76-9.63-.84-1.4-3-2.28-1.42-4.08.57,0,.24.76,1,.74a5.32,5.32,0,0,0,.34-2.22l-7.38-.38C554.07,150,554.61,155.4,553.19,160.9Zm15.5-10.83c3.71.71,7.08-4.35,3.35-6.52C566.3,140.18,559.71,150.38,568.69,150.07Z"/><path class="cls-2" d="M450.93,159.72c1.26-2.89-.74-22.34,5.31-16.36,3.16,4.34,4.69,9.77,8.55,13.57,3.17-7.19.39-18.1,6.5-23.4-3.51,16-1,42.64-16.77,11.92-2.34,42.81-11.36.93-12.28-13.06,1.08-.27,1.35,1.25,1.62,2,2.44,8.39,3.67,17.09,6.43,25.41C450,160.84,451.35,160.75,450.93,159.72Z"/><path class="cls-2" d="M492.77,151.37c.73.17,1,.79,1.71,1.12.68-6.46-3.1-21.5.95-25.87.8,5.34-.31,12.11.82,17.79,5.66-7.91,21.33-1.17,14.38,7.85C506.39,157,494.63,159.21,492.77,151.37Zm3.16,2.32c5.09,3.57,18.11-2.43,12.77-8.92-3.79-3.48-10.46-2.25-12,3.22C496,149.92,497,151.86,495.93,153.69Z"/><path class="cls-2" d="M498.3,158.14c-3.68,9.35-19.46,2-20.84-5.94-2.78-.67-7.75-3.14-5.95-6.73a6.94,6.94,0,0,0,5.61,4.59c2.91-16.68,21.45-4.13,3.37,1.94C482.71,159.24,492.24,162.66,498.3,158.14ZM480,149.87c3-.62,6.93-2.91,6.09-5.62C483.06,142.22,479.51,146.52,480,149.87Z"/><path class="cls-2" d="M528.75,145c4.35-3-3.69-2.36-5.24-.79,27.87,20.75-9,22.5-11.12,11.71,3.35,4.27,21.8,7.74,18.69-1.53-2.45-3.53-6.8-5.23-9.22-8.75-1.79-4.06,5.35-4.73,8-3.84S531.53,145.38,528.75,145Z"/><path class="cls-2" d="M541.76,161.47c-1.24,5.55-6-15.58-4.19-16.1C541.08,147.42,539.76,157.4,541.76,161.47Z"/><path class="cls-2" d="M540.83,132.77c1.18,1.22.61,5.59-1,3.4C539.86,135,539.72,133.79,540.83,132.77Z"/><path class="cls-5" d="M450.93,159.72c.42,1-1,1.13-.64.08Z"/><path class="cls-2" d="M164,94c-10.15.24-2.27,11,3.23,10.83C164.92,113,146,92.09,164.71,92.45c3.18-13.32,20.08-13.77,26.63-2.8,6.8,9.63-4.89,22.41-12.52,10.42-4.19,8.57-8.78-3-4.36-6.72,2.31-2.5,8.51.65,6.47,4-.93-.11-.29-1.06-.76-1.42,7.79,18.39,19.07-6.32.35-11.41-7.48-2.38-15,6.57-12.11,13.7,1.64,3.67,3.71,8.58,8.25,8.56C173,114.7,163.86,98.27,164,94Zm14.05.39c-3.73-.61-3.46,4.14-2.3,6.42C177.6,99,177.21,96.48,178.08,94.37Z"/><path class="cls-2" d="M139.72,102.79c-2.88,4.77-6-1-7.82-3.47-1.51,6.88-8.17,3-8-2.32-.83-6.75,6.61-10.39,6.14-5-4.38-3.69-5.42,8.5-1.36,8.83,1.76-2.29,1.37-5.62,2-8.35.19-3.1,3-2.91,2.79.1.05,3.57,1.05,7.46,3.91,9.78,4.42-4-.52-12.5,2.62-17.85,2,3.41.39,8.58,1.38,12.55,3.92-4,12.66-2.06,9.54,4.52C148.36,105.5,141.07,109.86,139.72,102.79Zm1.76,1.37c2.47,2.06,10.19-4.6,6.31-6.64C142.49,95.59,142.92,101.12,141.48,104.16Z"/><path class="cls-2" d="M213.62,103.61c.72-.31,1.06-1.11,2-1,.67.93.19,1.78-.35,2.54-2.74,3-5.78-2-7-4.21-1.41,2.54-2.91,7.13-6.84,4.69-4.87-3.28-1.3-12.77,4.8-10.07.79-2.38-1.47-8.36,1.56-9.42C210.54,87,207.77,99.38,213.62,103.61Zm-11.94-3.06c.78,9,7.62-2.58,2.56-3.5C202.59,97.16,201.71,99.3,201.68,100.55Z"/><path class="cls-2" d="M253.63,93.91c2.12.83,1.57,3.38,2.24,5.16,4.05-4.15,7.44-2.06,9.23,2.84,6.79-17.21,15.14,10.62,9.21,2.69-8.24-15.15-5.22,4.94-10.26.85-1.61-3.69-4.5-10.62-7.1-3.07-.24.84,0,2.22-1.11,2.42C253.37,104.55,253.17,96,253.63,93.91Z"/><path class="cls-2" d="M240.34,98.61c1.2-2.65-2.43-5.61,1.06-7-.06,1.28-.51,2.48.37,3.52,12.46-6,9.71,17.89.54,4.75C241.89,99.21,241.66,98.38,240.34,98.61Zm2.43-1.35c.81,1.89,4.69,6.47,5.17,2.18C247.94,96.84,244.57,94.92,242.77,97.26Z"/><path class="cls-2" d="M232.44,94.7c-6.05.78.82,10.94,6.3,7-1.21,9.26-19.06-4.22-8.4-9,2.06-1.08,5.17,1.69,2.72,3C232.22,96,232.15,95.46,232.44,94.7Z"/><path class="cls-2" d="M218.05,101.17c2.06-.82,4,1,1.48,2C218.29,103.73,218.33,102,218.05,101.17Z"/></g></svg>